<svg width="36" height="44" viewBox="0 0 36 44" fill="none" xmlns="http://www.w3.org/2000/svg">
<path d="M2.25 8.25257C2.25 6.90994 3.33485 5.82153 4.67308 5.82153H31.3269C32.6652 5.82153 33.75 6.90994 33.75 8.25257V38.6405C33.75 39.9831 32.6652 41.0715 31.3269 41.0715H4.67308C3.33485 41.0715 2.25 39.9831 2.25 38.6405V8.25257Z" fill="white"/>
<path fill-rule="evenodd" clip-rule="evenodd" d="M4.8 2.82153H31.2C33.851 2.82153 36 5.01941 36 7.73062V38.4124C36 41.1237 33.851 43.3215 31.2 43.3215H4.8C2.14903 43.3215 0 41.1237 0 38.4124V7.73062C0 5.01941 2.14903 2.82153 4.8 2.82153ZM4.8 5.27608C3.47452 5.27608 2.4 6.37502 2.4 7.73062V38.4124C2.4 39.7681 3.47452 40.867 4.8 40.867H31.2C32.5255 40.867 33.6 39.7681 33.6 38.4124V7.73062C33.6 6.37502 32.5255 5.27608 31.2 5.27608H4.8Z" fill="black"/>
<path d="M2.25 6.57153C2.25 4.50047 3.87727 2.82153 5.88462 2.82153H32.5385C33.2076 2.82153 33.75 3.38118 33.75 4.07153V10.3215H5.88462C3.87727 10.3215 2.25 8.6426 2.25 6.57153Z" fill="white"/>
<path fill-rule="evenodd" clip-rule="evenodd" d="M36 12.5715H6C2.68629 12.5715 0 9.88524 0 6.57153C0 3.25782 2.68629 0.571533 6 0.571533H32.4C34.3882 0.571533 36 2.18331 36 4.17153V12.5715ZM6 2.97153C4.01178 2.97153 2.4 4.58331 2.4 6.57153C2.4 8.55976 4.01178 10.1715 6 10.1715H33.6V4.17153C33.6 3.50879 33.0627 2.97153 32.4 2.97153H6Z" fill="black"/>
<path fill-rule="evenodd" clip-rule="evenodd" d="M12.75 6.19653C12.75 5.98943 13.0223 5.82153 13.3581 5.82153H34.6419C34.9777 5.82153 35.25 5.98943 35.25 6.19653C35.25 6.40364 34.9777 6.57153 34.6419 6.57153H13.3581C13.0223 6.57153 12.75 6.40364 12.75 6.19653Z" fill="black"/>
<path d="M10.5 12.5715H15.75V22.3215L13.564 20.4947C13.3144 20.2861 12.9356 20.2861 12.686 20.4947L10.5 22.3215V12.5715Z" fill="white"/>
<path fill-rule="evenodd" clip-rule="evenodd" d="M8.25 10.3215H18V22.8215C18 23.8088 17.4335 24.7036 16.5542 25.1052C15.6748 25.5069 14.6474 25.3402 13.9319 24.6797L13.125 23.9349L12.3181 24.6797C11.6026 25.3402 10.5752 25.5069 9.69583 25.1052C8.8165 24.7036 8.25 23.8088 8.25 22.8215V10.3215ZM15.5625 22.8215L13.5326 20.9478C13.4168 20.8408 13.2709 20.7874 13.125 20.7874C12.9791 20.7874 12.8332 20.8408 12.7173 20.9478L10.6875 22.8215V12.8215H15.5625V22.8215Z" fill="black"/>
</svg>
