<?xml version="1.0" encoding="UTF-8" standalone="no"?>
<!-- Created with Inkscape (http://www.inkscape.org/) -->

<svg
   width="210mm"
   height="297mm"
   viewBox="0 0 210 297"
   version="1.1"
   id="svg5"
   inkscape:version="1.1 (ce6663b3b7, 2021-05-25)"
   sodipodi:docname="lateral.svg"
   xmlns:inkscape="http://www.inkscape.org/namespaces/inkscape"
   xmlns:sodipodi="http://sodipodi.sourceforge.net/DTD/sodipodi-0.dtd"
   xmlns="http://www.w3.org/2000/svg"
   xmlns:svg="http://www.w3.org/2000/svg">
  <sodipodi:namedview
     id="namedview7"
     pagecolor="#505050"
     bordercolor="#eeeeee"
     borderopacity="1"
     inkscape:pageshadow="0"
     inkscape:pageopacity="0"
     inkscape:pagecheckerboard="0"
     inkscape:document-units="mm"
     showgrid="false"
     inkscape:zoom="0.46502525"
     inkscape:cx="270.95303"
     inkscape:cy="435.46022"
     inkscape:window-width="1208"
     inkscape:window-height="736"
     inkscape:window-x="72"
     inkscape:window-y="27"
     inkscape:window-maximized="1"
     inkscape:current-layer="layer1" />
  <defs
     id="defs2" />
  <g
     inkscape:label="Layer 1"
     inkscape:groupmode="layer"
     id="layer1"
     style="display:inline">
    <path
       style="fill:#7351e8;stroke:#000000;stroke-width:0.198376px;stroke-linecap:butt;stroke-linejoin:miter;stroke-opacity:1;fill-opacity:1"
       d="M 0.48942881,5.7807455 C 50.938159,38.793659 27.218056,64.162156 27.218056,64.162156 c 0,0 36.20981,21.441201 30.414147,57.531024 -2.870335,17.87369 2.913431,22.49474 2.913431,22.49474 l -15.069103,-6.60947 v 0 c 0,0 10.353691,1.45414 15.069103,6.60947 l 2.21596,16.46525 -10.336787,17.51194 -19.779704,12.5638 22.56304,2.31068 -11.042327,14.7528 19.197191,35.47306 -39.999323,-15.944 9.538916,20.8677 -7.756835,15.00362 -12.749453,0.15697 -4.95639,7.92586 -3.1653067,2.80583 -5.5962656,-2.45911 z"
       id="path75"
       sodipodi:nodetypes="ccscccccccccccccccccc" />
    <ellipse
       style="fill:#000080;stroke-width:0.264583"
       id="path3107"
       cx="34.380726"
       cy="134.69402"
       rx="0.34947413"
       ry="20.378456" />
    <ellipse
       style="fill:#000080;stroke-width:0.281619"
       id="path3111"
       cx="41.312962"
       cy="148.52242"
       rx="33.33041"
       ry="33.158493" />
    <ellipse
       style="fill:#ffffff;stroke-width:0.298136"
       id="path3143"
       cx="24.412558"
       cy="228.20056"
       rx="50.312885"
       ry="56.113701" />
    <ellipse
       style="fill:#000080;stroke-width:0.23148"
       id="path3145"
       cx="30.905666"
       cy="230.03885"
       rx="5.7603564"
       ry="6.5304365" />
    <ellipse
       style="fill:#00ffff;stroke-width:0.173936"
       id="path3444"
       cx="12.817937"
       cy="202.52937"
       rx="14.511102"
       ry="14.728491" />
    <path
       style="fill:#00ffff;stroke-width:0.264583"
       id="path3661"
       sodipodi:type="arc"
       sodipodi:cx="9.1572933"
       sodipodi:cy="70.430222"
       sodipodi:rx="5.9288712"
       sodipodi:ry="6.3092957"
       sodipodi:start="0"
       sodipodi:end="3.7323501"
       sodipodi:arc-type="slice"
       d="M 15.086164,70.430222 A 5.9288712,6.3092957 0 0 1 11.059868,76.405838 5.9288712,6.3092957 0 0 1 4.4494949,74.265373 5.9288712,6.3092957 0 0 1 4.233253,66.916005 l 4.9240403,3.514217 z" />
    <ellipse
       style="fill:#7351e8;fill-opacity:1;stroke-width:0.283401"
       id="path4982"
       cx="56.488926"
       cy="198.22513"
       rx="5.9372945"
       ry="6.1100516" />
    <path
       style="fill:#fe51e8;fill-opacity:1;stroke-width:0.264583"
       id="path5146"
       sodipodi:type="arc"
       sodipodi:cx="8.2328186"
       sodipodi:cy="90.865105"
       sodipodi:rx="3.4750187"
       sodipodi:ry="3.5098088"
       sodipodi:start="0.38748939"
       sodipodi:end="5.5230162"
       sodipodi:arc-type="slice"
       d="M 11.450202,92.191339 A 3.4750187,3.5098088 0 0 1 7.8839083,94.357177 3.4750187,3.5098088 0 0 1 4.8179562,91.515344 3.4750187,3.5098088 0 0 1 6.6489555,87.74106 3.4750187,3.5098088 0 0 1 10.751232,88.446692 l -2.5184134,2.418413 z" />
  </g>
</svg>
